<?xml version="1.0" encoding="utf-8"?>
<!-- Generator: Adobe Illustrator 17.1.0, SVG Export Plug-In . SVG Version: 6.00 Build 0)  -->
<!DOCTYPE svg PUBLIC "-//W3C//DTD SVG 1.1//EN" "http://www.w3.org/Graphics/SVG/1.1/DTD/svg11.dtd">
<svg version="1.1" id="Layer_1" xmlns="http://www.w3.org/2000/svg" xmlns:xlink="http://www.w3.org/1999/xlink" x="0px" y="0px"
	 viewBox="0 0 792 612" enable-background="new 0 0 792 612" xml:space="preserve">
<g>
	<path fill="#FFFFFF" stroke="#231F20" stroke-miterlimit="10" d="M350.559,254.065c0,0-88.525-106.23-122.755-126.296
		c0,0-70.82,233.707,0,356.462c0,0,112.132-101.509,122.755-118.034V254.065z"/>
	<path fill="#FFFFFF" stroke="#231F20" stroke-miterlimit="10" d="M350.559,252.466v112.132c0,0,57.999,29.508,107.906,0V252.466
		C458.465,252.466,419.349,230.039,350.559,252.466z"/>
	<path fill="#FFFFFF" stroke="#231F20" stroke-miterlimit="10" d="M458.465,249.344c0,0,80.263-89.706,147.542-121.575
		c0,0,99.148,154.624,0,356.462c0,0-140.46-103.869-147.542-118.034V249.344z"/>
	<path fill="#FFFFFF" stroke="#231F20" stroke-miterlimit="10" d="M458.465,250.524c0,0,24.787-47.214,142.82-92.067
		c0,0,97.967-18.886,101.508-27.147c0,0,55.475,205.379,0,332.854c0,0-118.034-7.082-244.33-101.508V250.524H458.465z"/>
	<path fill="#FFFFFF" stroke="#231F20" stroke-miterlimit="10" d="M350.559,254.065c0,0-83.804-76.722-175.87-96.787
		c0,0-59.016-18.886-70.82-29.508c0,0-55.475,254.952-4.721,339.936c0,0,180.591-16.525,251.411-101.508V254.065z"/>
</g>
</svg>
